<svg viewBox="0 0 1080 1080" fill="none" xmlns="http://www.w3.org/2000/svg">      <defs>  <filter id="filter" x="-20%" y="-20%" width="140%" height="140%" filterUnits="objectBoundingBox" primitiveUnits="userSpaceOnUse" color-interpolation-filters="linearRGB">    <feMorphology operator="dilate" radius="20 20" in="SourceAlpha" result="morphology"/>    <feFlood flood-color="#ffffff" flood-opacity="1" result="flood"/>    <feComposite in="flood" in2="morphology" operator="in" result="composite"/>    <feMerge result="merge">          <feMergeNode in="composite" result="mergeNode"/>      <feMergeNode in="SourceGraphic" result="mergeNode1"/>      </feMerge>  </filter></defs>      <g id="notion-avatar" filter="url(#filter)">        <g id="notion-avatar-face" fill="#ffffff">      <!--?xml version="1.0" encoding="UTF-8"?-->    <title>Face/ 2</title>    <g id="Face/-2" stroke="none" stroke-width="1" fill-rule="evenodd" stroke-linecap="round" stroke-linejoin="round">        <path d="M532,379 C664.54834,379 772,486.45166 772,619 C772,751.54834 664.54834,899 532,899 C432.699202,899 347.483933,816.242653 310.982017,718.993409 C267.268677,718.448846 232,682.843144 232,639 C232,599.134956 261.158843,566.080325 299.312086,560.00055 C325.599297,455.979213 419.809919,379 532,379 Z M295.858895,624.545187 L304.141105,655.454813" id="Path" stroke="#000000" stroke-width="24"/>    </g>    </g><g id="notion-avatar-nose">      <!--?xml version="1.0" encoding="UTF-8"?-->    <title>Nose/ 5</title>    <g id="Nose/-5" stroke="none" stroke-width="1" fill="none" fill-rule="evenodd" stroke-linecap="round" stroke-linejoin="round">        <path d="M673,568 C662.55102,590.836147 657.326531,613.414126 657.326531,635.733939 C657.326531,669.213657 673,686.992054 670.061224,702.552554 C668.102041,712.92622 653.081633,714.756867 625,708.044495" id="Path" stroke="#000000" stroke-width="16"/>    </g>    </g><g id="notion-avatar-mouth">      <!--?xml version="1.0" encoding="UTF-8"?-->    <title>Mouth/ 9</title>    <g id="Mouth/-9" stroke="none" stroke-width="1" fill="none" fill-rule="evenodd" stroke-linecap="round" stroke-linejoin="round">        <path d="M532,760 C569.387146,756.771376 597.387146,753.438043 616,750 C634.612854,746.561957 658.946187,740.228624 689,731 L667,780 C644.19345,787.762145 627.19345,792.095479 616,793 C604.80655,793.904521 588.80655,792.237855 568,788 L532,760 Z" id="Path" stroke="#000000" stroke-width="16"/>    </g>    </g><g id="notion-avatar-eyes">      <!--?xml version="1.0" encoding="UTF-8"?-->    <title>Eyes/ 2</title>    <g id="Eyes/-2" stroke="none" stroke-width="1" fill="none" fill-rule="evenodd">        <path d="M570,516 C587.673112,516 602,530.326888 602,548 C602,565.673112 587.673112,580 570,580 C552.326888,580 538,565.673112 538,548 C538,530.326888 552.326888,516 570,516 Z M708,516 C725.673112,516 740,530.326888 740,548 C740,565.673112 725.673112,580 708,580 C690.326888,580 676,565.673112 676,548 C676,530.326888 690.326888,516 708,516 Z" id="Combined-Shape" fill="#000000"/>    </g>    </g><g id="notion-avatar-eyebrows">      <!--?xml version="1.0" encoding="UTF-8"?-->    <title>Eyebrows/ 3</title>    <g id="Eyebrows/-3" stroke="none" stroke-width="1" fill="none" fill-rule="evenodd" stroke-linecap="round" stroke-linejoin="round">        <g id="Group" transform="translate(512.000000, 484.000000)" stroke="#000000" stroke-width="24">            <path d="M152,14.0251712 C167.712271,3.95186377 182.349308,-0.695225271 195.911111,0.0839040908 C206.159229,0.672661315 219.876442,6.74452014 237.511111,14.0251712 C241.312508,15.5946162 247.475471,17.5862258 256,20" id="Path" transform="translate(204.000000, 10.000000) scale(-1, 1) translate(-204.000000, -10.000000) "/>            <path d="M0,14.0251712 C15.7122706,3.95186377 30.3493076,-0.695225271 43.9111111,0.0839040908 C54.1592293,0.672661315 67.8764421,6.74452014 85.5111111,14.0251712 C89.3125078,15.5946162 95.4754707,17.5862258 104,20" id="Path"/>        </g>    </g>    </g><g id="notion-avatar-glasses">      <!--?xml version="1.0" encoding="UTF-8"?-->    <title>Glasses/ 0</title>    <g id="Glasses/-0" stroke="none" stroke-width="1" fill="none" fill-rule="evenodd"/>    </g><g id="notion-avatar-hair">      <g id="Hairstyle/ 38"><path id="Path" fill-rule="evenodd" clip-rule="evenodd" d="M605 263C704 296 733 387.139 733 419C733 445.483 682 437 682 437C682 437 622.089 396.832 572 388C504.631 376.121 467 422 445 424C423 426 408 437 399 463C390 489 417 540 417 540L382 655H366L328.117 564.825H287.146C265.131 517.303 245 413 269 379C293 345 327 345 327 345C327 345 336 323 373 290C410 257 506 230 605 263Z" fill="black" stroke="black" stroke-width="12" stroke-linecap="round" stroke-linejoin="round"/></g>    </g><g id="notion-avatar-accessories">      <!--?xml version="1.0" encoding="UTF-8"?-->    <title>Accessories/ 0</title>    <g id="Accessories/-0" stroke="none" stroke-width="1" fill="none" fill-rule="evenodd"/>    </g><g id="notion-avatar-details">      <!--?xml version="1.0" encoding="UTF-8"?-->    <title>Details/ 0</title>    <g id="Details/-0" stroke="none" stroke-width="1" fill="none" fill-rule="evenodd"/>    </g><g id="notion-avatar-beard">      <!--?xml version="1.0" encoding="UTF-8"?-->    <title>Beard/ 0</title>    <g id="Beard/-0" stroke="none" stroke-width="1" fill="none" fill-rule="evenodd"/>    </g>      </g>      </svg>