<svg viewBox="0 0 1080 1080" fill="none" xmlns="http://www.w3.org/2000/svg">      <defs>  <filter id="filter" x="-20%" y="-20%" width="140%" height="140%" filterUnits="objectBoundingBox" primitiveUnits="userSpaceOnUse" color-interpolation-filters="linearRGB">    <feMorphology operator="dilate" radius="20 20" in="SourceAlpha" result="morphology"/>    <feFlood flood-color="#ffffff" flood-opacity="1" result="flood"/>    <feComposite in="flood" in2="morphology" operator="in" result="composite"/>    <feMerge result="merge">          <feMergeNode in="composite" result="mergeNode"/>      <feMergeNode in="SourceGraphic" result="mergeNode1"/>      </feMerge>  </filter></defs>      <g id="notion-avatar" filter="url(#filter)">        <g id="notion-avatar-face" fill="#ffffff">      <!--?xml version="1.0" encoding="UTF-8"?-->    <title>Face/ 6</title>    <g id="Face/-6" stroke="none" stroke-width="1" fillRule="evenodd" stroke-linecap="round" stroke-linejoin="round">        <path d="M532,379 C664.54834,379 772,486.45166 772,619 C772,751.54834 764.54834,899 532,899 C402.610491,899 332.317998,816.086314 305.249034,718.717925 C264.225797,715.291578 232,680.909158 232,639 C232,599.134956 261.158843,566.080325 299.312086,560.00055 C325.599297,455.979213 419.809919,379 532,379 Z M295.858895,624.545187 L304.141105,655.454813" id="Path" stroke="#000000" stroke-width="24"/>    </g>    </g><g id="notion-avatar-nose">      <!--?xml version="1.0" encoding="UTF-8"?-->    <title>Nose/ 1</title>    <g id="Nose/-1" stroke="none" stroke-width="1" fill="none" fillRule="evenodd" stroke-linecap="round" stroke-linejoin="round">        <path d="M633.532552,569.006852 C651.291821,622.395473 661.086671,652.555363 662.917104,659.486521 C664.747537,666.41768 663.749048,673.591123 659.921638,681.006852" id="Line" stroke="#000000" stroke-width="16" transform="translate(648.668966, 625.006852) rotate(-3.225647) translate(-648.668966, -625.006852) "/>    </g>    </g><g id="notion-avatar-mouth">      <!--?xml version="1.0" encoding="UTF-8"?-->    <title>Mouth/ 0</title>    <g id="Mouth/-0" stroke="none" stroke-width="1" fill="none" fillRule="evenodd" stroke-linecap="round" stroke-linejoin="round">        <path d="M549,759 C576.33038,765.666667 599.663714,769 619,769 C638.336286,769 655.002953,765.666667 669,759" id="Path" stroke="#000000" stroke-width="16"/>    </g>    </g><g id="notion-avatar-eyes">      <g id="Eyes/ 11"><g id="Group 3"><path id="Path" d="M660 536.5C660 536.5 668.471 533 679.765 533C691.059 533 702.811 538 723.059 538C743.306 538 756 533 756 533" stroke="black" stroke-width="12" stroke-linecap="round" stroke-linejoin="round"/><path id="Path_2" d="M618 536.5C618 536.5 609.529 533 598.235 533C586.941 533 575.189 538 554.941 538C534.694 538 522 533 522 533" stroke="black" stroke-width="12" stroke-linecap="round" stroke-linejoin="round"/></g></g>    </g><g id="notion-avatar-eyebrows">      <!--?xml version="1.0" encoding="UTF-8"?-->    <title>Eyebrows/ 7</title>    <g id="Eyebrows/-7" stroke="none" stroke-width="1" fill="none" fillRule="evenodd" stroke-linecap="round" stroke-linejoin="round">        <g id="Group" transform="translate(528.000000, 485.000000)" stroke="#000000" stroke-width="16">            <path d="M2,31 C13.6420073,23.1142473 23.8820073,17.5142473 32.72,14.2 C41.5579927,10.8857527 52.651326,8.48575274 66,7" id="Path" transform="translate(34.000000, 19.000000) rotate(12.000000) translate(-34.000000, -19.000000) "/>            <path d="M156,31 C167.642007,23.1142473 177.882007,17.5142473 186.72,14.2 C195.557993,10.8857527 206.651326,8.48575274 220,7" id="Path" transform="translate(188.000000, 19.000000) scale(-1, 1) rotate(12.000000) translate(-188.000000, -19.000000) "/>        </g>    </g>    </g><g id="notion-avatar-glasses">      <!--?xml version="1.0" encoding="UTF-8"?-->    <title>Glasses/ 9</title>    <g id="Glasses/-9" stroke="none" stroke-width="1" fill="none" fillRule="evenodd" stroke-linecap="round" stroke-linejoin="round">        <g id="Group" transform="translate(289.000000, 466.000000)" fill="#000000" stroke="#000000" stroke-width="4">            <path d="M229.149255,5.21037268 C247.672154,10.005924 283.261021,26.6137093 324.690343,43.1526512 L325.464481,43.4558112 C331.11768,45.6282957 339.032765,47.7972932 349.209737,49.9628037 L349.209737,71.3661403 C344.161954,74.4730774 341.061801,77.3917142 339.909277,80.1220507 C325.535839,114.172813 298.479956,136.549029 257.050634,124.874482 C200.767297,109.014157 181.801459,25.6408303 180.110466,12.0205252 C178.419474,-1.59977987 196.205221,-3.31878925 229.149255,5.21037268 Z M470.850745,5.21037268 L472.809163,4.710934 C504.498419,-3.24526836 521.546707,-1.32737377 519.889534,12.0205252 C518.198541,25.6408303 499.232703,109.014157 442.949366,124.874482 C401.520044,136.549029 374.464161,114.172813 360.090723,80.1220507 C358.969348,77.4655071 356.004199,74.630704 351.195275,71.6176415 L350.790263,71.3661403 L350.790263,49.9628037 L352.195626,49.6606168 C362.16219,47.4947819 369.866867,45.3254601 375.309657,43.1526512 L377.788318,42.1603271 C418.155707,25.9541227 452.698304,9.91001298 470.850745,5.21037268 Z" id="Combined-Shape"/>            <polygon id="Path" points="199 43 4 75 0 84 199 64"/>        </g>    </g>    </g><g id="notion-avatar-hair">      <!--?xml version="1.0" encoding="UTF-8"?-->    <title>Hairstyle/ 24</title>    <g id="Hairstyle/-24" stroke="none" stroke-width="1" fill="none" fillRule="evenodd" stroke-linecap="round" stroke-linejoin="round">        <path d="M781,289.497769 C798.103709,316.997454 825.17172,336.301089 841,364 C865.890626,407.557684 868.077011,462.61072 868,529 C867.9675,557.017942 882.693139,582.736765 881,600 C876.129956,649.654956 859.837727,658.601446 868,683 C875.333333,704.9207 892,713.587367 918,709 C879.594389,742.832207 847.927723,762.832207 823,769 C798.072277,775.167793 764.738944,778.128143 723,777.88105 C752.333333,741.246882 771.666667,693.702197 781,635.246996 C787.192253,596.464564 768.614679,548.940715 764,528.632681 C756,493.426708 705,479.809303 671,458.884998 C648.333333,444.935462 632.333333,425.339684 623,400.097666 C619.930775,398.204518 609.503486,418.456691 578,448.921044 C556.997676,469.230612 531.664342,481.851621 502,486.784071 C522,461.542053 533.666667,441.282012 537,426.003948 C540.333333,410.725884 536.333333,390.133711 525,364.227429 C527,394.783556 522.333333,421.02197 511,442.942671 C499.666667,464.863371 479.666667,482.466358 451,495.751631 C459.984865,482.167128 463.984865,464.564141 463,442.942671 C462.109292,423.388296 457.109292,400.803332 448,375.187779 C446.738771,415.491033 444.405438,444.386502 441,461.874185 C432.896469,503.487621 336,623.290251 357,653.182115 C371,673.110024 395.666667,683.049319 431,683 C409,700.333333 389,712.333333 371,719 C344,729 285.006413,721.830457 312,729.165808 C321.432212,749.904322 324.306229,752.229245 336.874017,766.032441 C349.254226,779.629619 251,793.931514 185,775 C141,762.378991 111.333333,743.447477 96,718.205458 C119.330285,723.999457 128.663618,723.999457 124,718.205458 C117.31189,709.896266 101.978557,695.282466 78,674.364058 C110.615651,683.475632 131.282317,681.15071 140,667.389289 C157.219175,640.207719 139.708942,582.818574 140,557.52815 C140.291796,532.173599 161.203267,500.097769 173,461.874185 C181.216606,435.25087 180.158048,400.228294 185,385.151734 C209,310.422073 252.196553,275.33175 292,247.649159 C316.914685,230.321438 337,180.890663 393,159.966358 C449,139.042053 472.944616,159.966358 512,159.966358 C529.495144,159.966358 548.056153,149.154015 564,151 C671.997018,163.503936 742.660193,227.854262 781,289.497769 Z" id="Path" stroke="#000000" stroke-width="12" fill="#000000"/>    </g>    </g><g id="notion-avatar-accessories">      <!--?xml version="1.0" encoding="UTF-8"?-->    <title>Accessories/ 0</title>    <g id="Accessories/-0" stroke="none" stroke-width="1" fill="none" fillRule="evenodd"/>    </g><g id="notion-avatar-details">      <!--?xml version="1.0" encoding="UTF-8"?-->    <title>Details/ 0</title>    <g id="Details/-0" stroke="none" stroke-width="1" fill="none" fillRule="evenodd"/>    </g><g id="notion-avatar-beard">      <!--?xml version="1.0" encoding="UTF-8"?-->    <title>Beard/ 0</title>    <g id="Beard/-0" stroke="none" stroke-width="1" fill="none" fillRule="evenodd"/>    </g>      </g>      </svg>